<?xml version="1.0" encoding="utf-8"?>
<!-- Generator: Adobe Illustrator 25.2.2, SVG Export Plug-In . SVG Version: 6.00 Build 0)  -->
<svg version="1.1" id="Calque_1" xmlns="http://www.w3.org/2000/svg" xmlns:xlink="http://www.w3.org/1999/xlink" x="0px" y="0px"
	 viewBox="0 0 137.9 139" style="enable-background:new 0 0 137.9 139;" xml:space="preserve">
<style type="text/css">
	.st0{fill:#FFFFFF;}
</style>
<g>
	<path class="st0" d="M69,28.4c-22.7,0-41.1,18.4-41.1,41.1s18.4,41.1,41.1,41.1S110,92.1,110,69.5S91.6,28.4,69,28.4z M69,105.1
		c-19.6,0-35.6-16-35.6-35.6c0-19.6,16-35.6,35.6-35.6c19.6,0,35.6,16,35.6,35.6C104.6,89.1,88.6,105.1,69,105.1z"/>
	<path class="st0" d="M134.7,66.7H121c-1.5,0-2.7,1.2-2.7,2.7s1.2,2.7,2.7,2.7h13.7c1.5,0,2.7-1.2,2.7-2.7S136.2,66.7,134.7,66.7z"
		/>
	<path class="st0" d="M19.7,69.5c0-1.5-1.2-2.7-2.7-2.7H3.2c-1.5,0-2.7,1.2-2.7,2.7s1.2,2.7,2.7,2.7h13.7
		C18.4,72.2,19.7,71,19.7,69.5z"/>
	<path class="st0" d="M69,20.2c1.5,0,2.7-1.2,2.7-2.7V3.7C71.7,2.2,70.5,1,69,1s-2.7,1.2-2.7,2.7v13.7C66.2,18.9,67.4,20.2,69,20.2z
		"/>
	<path class="st0" d="M69,118.8c-1.5,0-2.7,1.2-2.7,2.7v13.7c0,1.5,1.2,2.7,2.7,2.7s2.7-1.2,2.7-2.7v-13.7
		C71.7,120,70.5,118.8,69,118.8z"/>
	<path class="st0" d="M114,46.2c0.5,0,0.9-0.1,1.4-0.4l11.9-6.8c1.3-0.8,1.8-2.4,1-3.7c-0.8-1.3-2.4-1.8-3.7-1l-11.9,6.8
		c-1.3,0.8-1.8,2.4-1,3.7C112.1,45.7,113.1,46.2,114,46.2z"/>
	<path class="st0" d="M22.5,93.1L10.7,100c-1.3,0.8-1.8,2.4-1,3.7c0.5,0.9,1.4,1.4,2.4,1.4c0.5,0,0.9-0.1,1.4-0.4l11.9-6.8
		c1.3-0.8,1.8-2.4,1-3.7C25.5,92.8,23.8,92.3,22.5,93.1z"/>
	<path class="st0" d="M40.6,25.8c0.5,0.9,1.4,1.4,2.4,1.4c0.5,0,0.9-0.1,1.4-0.4c1.3-0.8,1.8-2.4,1-3.7l-6.8-11.9
		c-0.8-1.3-2.4-1.8-3.7-1c-1.3,0.8-1.8,2.4-1,3.7L40.6,25.8z"/>
	<path class="st0" d="M97.3,113.2c-0.8-1.3-2.4-1.8-3.7-1c-1.3,0.8-1.8,2.4-1,3.7l6.8,11.9c0.5,0.9,1.4,1.4,2.4,1.4
		c0.5,0,0.9-0.1,1.4-0.4c1.3-0.8,1.8-2.4,1-3.7L97.3,113.2z"/>
	<path class="st0" d="M93.6,26.8c0.4,0.2,0.9,0.4,1.4,0.4c0.9,0,1.9-0.5,2.4-1.4l6.8-11.9c0.8-1.3,0.3-3-1-3.7c-1.3-0.8-3-0.3-3.7,1
		L92.6,23C91.8,24.3,92.3,26,93.6,26.8z"/>
	<path class="st0" d="M44.3,112.2c-1.3-0.8-3-0.3-3.7,1L33.7,125c-0.8,1.3-0.3,3,1,3.7c0.4,0.2,0.9,0.4,1.4,0.4
		c0.9,0,1.9-0.5,2.4-1.4l6.8-11.9C46.1,114.6,45.6,112.9,44.3,112.2z"/>
	<path class="st0" d="M25.3,41.1l-11.9-6.8c-1.3-0.8-3-0.3-3.7,1c-0.8,1.3-0.3,3,1,3.7l11.9,6.8c0.4,0.2,0.9,0.4,1.4,0.4
		c0.9,0,1.9-0.5,2.4-1.4C27,43.5,26.6,41.8,25.3,41.1z"/>
	<path class="st0" d="M127.2,100l-11.9-6.8c-1.3-0.8-3-0.3-3.7,1c-0.8,1.3-0.3,3,1,3.7l11.9,6.8c0.4,0.2,0.9,0.4,1.4,0.4
		c0.9,0,1.9-0.5,2.4-1.4C129,102.4,128.5,100.7,127.2,100z"/>
</g>
</svg>
