<?xml version="1.0" encoding="utf-8"?>
<!-- Generator: Adobe Illustrator 25.2.2, SVG Export Plug-In . SVG Version: 6.00 Build 0)  -->
<svg version="1.1" id="Calque_1" xmlns="http://www.w3.org/2000/svg" xmlns:xlink="http://www.w3.org/1999/xlink" x="0px" y="0px"
	 viewBox="0 0 137.9 139" style="enable-background:new 0 0 137.9 139;" xml:space="preserve">
<style type="text/css">
	.st0{fill:#FFFFFF;}
</style>
<path class="st0" d="M71.5,137.1c-7,0-14-1.1-20.9-3.3c-17.2-5.6-31.1-17.5-39.3-33.6c-16.8-33.2-3.6-74,29.6-91
	C54.9,2.1,71,0,86.3,3.5c1.3,0.3,2.2,1.4,2.2,2.7s-1,2.5-2.2,2.8c-16.4,4.1-29.2,16-34.4,32c-8.2,25.4,5.7,52.8,31,61.1l0,0
	c15.9,5.2,33.2,1.8,46.1-9.1c1-0.8,2.5-0.9,3.5-0.1c1.1,0.8,1.4,2.2,0.9,3.4c-6.2,14.4-17.3,26.3-31.3,33.4
	C92.5,134.6,82,137.1,71.5,137.1z M71.5,7.5c-9.7,0-19.3,2.3-28.1,6.8C13,29.8,0.9,67.2,16.4,97.6c7.5,14.8,20.3,25.7,36,30.8
	c15.7,5.1,32.4,3.8,47.1-3.7c9.5-4.8,17.5-12,23.3-20.8c-12.7,6.7-27.6,8.1-41.7,3.5l0,0c-28.3-9.2-43.9-39.8-34.7-68.2
	c4.7-14,14.6-25.3,27.5-31.6C73.1,7.5,72.3,7.5,71.5,7.5z"/>
</svg>
