<?xml version="1.0" encoding="utf-8"?>
<!-- Generator: Adobe Illustrator 25.2.2, SVG Export Plug-In . SVG Version: 6.00 Build 0)  -->
<svg version="1.1" id="Calque_1" xmlns="http://www.w3.org/2000/svg" xmlns:xlink="http://www.w3.org/1999/xlink" x="0px" y="0px"
	 viewBox="0 0 137.9 139" style="enable-background:new 0 0 137.9 139;" xml:space="preserve">
<style type="text/css">
	.st0{fill:#FFFFFF;}
</style>
<g>
	<path class="st0" d="M114.2,68.9c0-16.2-13.2-29.4-29.4-29.4c-8.4,0-16.2,3.5-21.7,9.6c-2.8-0.8-5.8-1.2-8.8-1.2
		c-12.9,0-24.8,7.7-30.2,19.3C11.3,67.5,1,78,1,90.8c0,13,10.6,23.6,23.6,23.6h61.6c10.6,0,19.3-8.7,19.3-19.3
		c0-1.6-0.2-3.2-0.6-4.8C110.8,84.9,114.2,77.1,114.2,68.9z M86.2,108.2H24.6c-9.6,0-17.3-7.8-17.3-17.3c0-9.6,7.8-17.3,17.3-17.3
		c0.4,0,0.8,0,1.1,0.1h0.1c1.4,0.1,2.7-0.7,3.2-2c4-10.4,14.1-17.3,25.2-17.3c14.1,0,26,11,26.9,25.1c0.1,0.9,0.5,1.7,1.1,2.2
		c0.7,0.5,1.5,0.8,2.4,0.7c0.6-0.1,1.1-0.1,1.5-0.1c7.2,0,13,5.8,13,13S93.4,108.2,86.2,108.2z M87.1,75.9
		c-1.7-10.6-8.5-19.5-17.6-24.3c4.2-3.7,9.6-5.8,15.4-5.8c12.7,0,23.1,10.4,23.1,23.1c0,5.7-2.1,11.2-5.8,15.4
		C98.8,79.5,93.3,76.2,87.1,75.9z"/>
	<path class="st0" d="M84.8,33.6c1.7,0,3.1-1.4,3.1-3.1V19.9c0.1-1.7-1.3-3.1-3.1-3.1c-1.7,0-3.1,1.4-3.1,3.1v10.5
		C81.7,32.2,83.1,33.6,84.8,33.6z"/>
	<path class="st0" d="M133.8,65.8h-10.5c-1.7,0-3.1,1.4-3.1,3.1s1.4,3.1,3.1,3.1h10.5c1.7,0,3.1-1.4,3.1-3.1S135.5,65.8,133.8,65.8z
		"/>
	<path class="st0" d="M112,44.9c0.8,0,1.6-0.3,2.2-0.9l7.4-7.4c1.2-1.2,1.2-3.2,0-4.4c-1.2-1.2-3.2-1.2-4.4,0l-7.4,7.4
		c-1.2,1.2-1.2,3.2,0,4.4C110.4,44.6,111.2,44.9,112,44.9z"/>
	<path class="st0" d="M55.4,44c0.6,0.6,1.4,0.9,2.2,0.9s1.6-0.3,2.2-0.9c1.2-1.2,1.2-3.2,0-4.4l-7.4-7.4c-1.2-1.2-3.2-1.2-4.4,0
		c-1.2,1.2-1.2,3.2,0,4.4L55.4,44z"/>
	<path class="st0" d="M114.2,93.9c-1.2-1.2-3.2-1.2-4.4,0c-1.2,1.2-1.2,3.2,0,4.4l7.4,7.4c0.6,0.6,1.4,0.9,2.2,0.9
		c0.8,0,1.6-0.3,2.2-0.9c1.2-1.2,1.2-3.2,0-4.4L114.2,93.9z"/>
</g>
</svg>
