<?xml version="1.0" encoding="utf-8"?>
<!-- Generator: Adobe Illustrator 25.2.2, SVG Export Plug-In . SVG Version: 6.00 Build 0)  -->
<svg version="1.1" id="Calque_1" xmlns="http://www.w3.org/2000/svg" xmlns:xlink="http://www.w3.org/1999/xlink" x="0px" y="0px"
	 viewBox="0 0 137.9 139" style="enable-background:new 0 0 137.9 139;" xml:space="preserve">
<style type="text/css">
	.st0{fill:#FFFFFF;}
</style>
<path class="st0" d="M136.1,70.9c-0.4-0.5-1.1-0.7-1.6-0.5c-4.6,1.8-9.5,1.9-13.9,0.3c-2-0.7-3.9-1.7-5.6-3
	c-9-6.7-10.8-19.5-4.1-28.5c4.2-5.7,11-8.7,18.1-8.1c0.6,0.1,1.2-0.3,1.4-0.9c0.2-0.6,0-1.3-0.6-1.6c-5.7-3.5-12.5-4.9-19.1-3.9
	C98,26.4,88.4,36.1,86.3,48c-4.6-3.7-10.4-6-16.8-6c-10.6,0-20.1,6.3-24.3,15.8c-1.4-0.4-2.8-0.6-4.2-0.6c-8.8,0-16.1,6.7-17,15.3
	c-0.7-0.1-1.3-0.1-2-0.1C10.4,72.5,1,81.9,1,93.4s9.4,20.9,20.9,20.9h70.4c12.6,0,22.8-10.2,22.8-22.8c0-3.4-0.8-6.6-2.1-9.5
	c1.9,0.1,3.8,0,5.6-0.2c6.6-1,12.8-4.2,17.3-9.2C136.4,72.1,136.5,71.4,136.1,70.9z M92.3,106.7H21.9c-7.3,0-13.3-6-13.3-13.3
	s6-13.3,13.3-13.3c1.6,0,3.1,0.3,4.7,0.9c1.3,0.5,2.8,0.2,3.9-0.7c1.1-0.9,1.5-2.4,1.2-3.7c-0.2-0.8-0.3-1.5-0.3-2.2
	c0-5.2,4.3-9.5,9.5-9.5c1.6,0,3.1,0.4,4.6,1.3c1,0.6,2.3,0.7,3.3,0.2c1.1-0.5,1.9-1.4,2.2-2.5c2.2-8.3,9.8-14.1,18.4-14.1
	c10.5,0,19,8.5,19,19c0,1-0.1,2-0.3,3.2C88,73,88.3,74.1,89.1,75c0.7,0.8,1.8,1.3,2.9,1.3c0.1,0,0.3,0,0.5,0c8.3,0.1,15,6.9,15,15.2
	C107.5,99.9,100.7,106.7,92.3,106.7z M118.3,79.1c-2.3,0.3-4.6,0.3-6.9,0.1c-3.4-5.3-8.9-9-15.3-10.1c0-0.1,0-0.2,0-0.3
	c0-7.1-2.8-13.6-7.4-18.4C90,38.8,99,29.1,111,27.3c4.1-0.6,8.3-0.2,12.1,1.1c0.1,0,0.2,0.1,0.3,0.1c-5.8,0.9-11.1,4.1-14.7,9
	c-7.6,10.2-5.6,24.8,4.6,32.4c4.8,3.6,10.8,5.2,16.6,4.4C126.5,76.8,122.5,78.4,118.3,79.1z"/>
</svg>
