<?xml version="1.0" encoding="utf-8"?>
<!-- Generator: Adobe Illustrator 25.2.2, SVG Export Plug-In . SVG Version: 6.00 Build 0)  -->
<svg version="1.1" id="Calque_1" xmlns="http://www.w3.org/2000/svg" xmlns:xlink="http://www.w3.org/1999/xlink" x="0px" y="0px"
	 viewBox="0 0 137.9 139" style="enable-background:new 0 0 137.9 139;" xml:space="preserve">
<style type="text/css">
	.st0{fill:#FFFFFF;}
</style>
<g>
	<path class="st0" d="M109.7,45L109.7,45c0-0.9,0-1.8,0-2.7c0-16.5-13.4-29.9-29.9-29.9c-14.4,0-26.5,10.2-29.3,23.9
		c-2.7-1.4-5.7-2.1-8.8-2.1c-10.5,0-19,8.5-19,19c0,0.9,0.1,1.8,0.2,2.7h-0.2C10.7,55.9,1,65.7,1,77.7s9.8,21.8,21.8,21.8h1.4
		c0.7-1.9,1.6-3.8,2.7-5.4h-4.2c-9,0-16.3-7.3-16.3-16.3s7.3-16.3,16.3-16.3c1.1,0,2.2,0.1,3.3,0.3c1,0.2,2-0.2,2.6-0.9
		c0.7-0.8,0.8-1.8,0.5-2.7c-0.6-1.6-0.9-3.2-0.9-4.8c0-7.5,6.1-13.6,13.6-13.6c3.4,0,6.6,1.3,9.1,3.5c0.8,0.7,1.9,0.9,2.9,0.5
		s1.6-1.3,1.7-2.4C56,28.1,66.7,17.8,79.8,17.8c13.5,0,24.5,11,24.5,24.5c0,1.7-0.2,3.4-0.5,5.1c-0.2,0.9,0.1,1.8,0.7,2.4
		c0.6,0.7,1.5,1,2.4,0.8c1.1-0.2,2.1-0.2,3-0.2c12,0,21.8,9.8,21.8,21.8c0,3.4-0.8,6.6-2.1,9.4c1.6,1,3,2.1,4.4,3.4
		c2.1-3.8,3.2-8.2,3.2-12.8C136.9,57.2,124.7,45,109.7,45z"/>
	<path class="st0" d="M115.2,126.6h-68c-10.5,0-19-8.5-19-19c0-10.6,8.6-19.1,19.3-19c1.3-7.7,8-13.6,16.1-13.6
		c2.2,0,4.4,0.5,6.4,1.3C73,66,82.5,58.6,93.5,58.6c13.5,0,24.5,11,24.5,24.5c0,0.1,0,0.1,0,0.2c10.7,1.3,19,10.5,19,21.6
		C136.9,116.8,127.2,126.6,115.2,126.6z M47.2,94c-7.5,0-13.6,6.1-13.6,13.6s6.1,13.6,13.6,13.6h68c9,0,16.3-7.3,16.3-16.3
		s-7.3-16.3-16.3-16.3c-0.7,0.1-1.6-0.3-2.2-0.8c-0.6-0.6-0.9-1.4-0.8-2.2c0.1-0.8,0.2-1.6,0.2-2.4c0-10.5-8.5-19-19-19
		c-9.7,0-17.8,7.2-18.9,16.8c-0.1,1-0.7,1.8-1.6,2.2c-0.9,0.4-1.9,0.2-2.7-0.4c-2-1.5-4.3-2.3-6.6-2.3c-6,0-10.8,4.8-10.9,10.7
		c0,0.1,0,0.2,0,0.3c0,0.8-0.3,1.6-0.9,2.1c-0.6,0.5-1.4,0.8-2.2,0.6C48.7,94,47.9,94,47.2,94z"/>
</g>
</svg>
