<?xml version="1.0" encoding="utf-8"?>
<!-- Generator: Adobe Illustrator 25.2.2, SVG Export Plug-In . SVG Version: 6.00 Build 0)  -->
<svg version="1.1" id="Calque_1" xmlns="http://www.w3.org/2000/svg" xmlns:xlink="http://www.w3.org/1999/xlink" x="0px" y="0px"
	 viewBox="0 0 137.9 139" style="enable-background:new 0 0 137.9 139;" xml:space="preserve">
<style type="text/css">
	.st0{fill:#FFFFFF;}
</style>
<g>
	<path class="st0" d="M108.1,35.5c0,0-0.1,0-0.1,0c0.1-0.9,0.1-1.7,0.1-2.6c0-15.8-12.9-28.7-28.7-28.7c-13.9,0-25.4,9.8-28.1,23
		c-2.6-1.4-5.5-2.1-8.4-2.1c-10.1,0-18.3,8.2-18.3,18.3c0,0.9,0.1,1.7,0.2,2.6c-0.1,0-0.1,0-0.2,0C13.1,46,3.7,55.4,3.7,66.9
		s9.4,20.9,20.9,20.9h83.5c14.4,0,26.1-11.7,26.1-26.1C134.2,47.3,122.5,35.5,108.1,35.5z M108.1,82.5H24.6c-8.6,0-15.7-7-15.7-15.7
		s7-15.7,15.7-15.7c1.1,0,2.1,0.1,3.1,0.3c0.9,0.2,1.9-0.1,2.5-0.9c0.6-0.7,0.8-1.7,0.4-2.6c-0.6-1.5-0.9-3.1-0.9-4.7
		c0-7.2,5.9-13.1,13.1-13.1c3.2,0,6.3,1.2,8.7,3.4c0.7,0.7,1.8,0.9,2.8,0.5c0.9-0.4,1.6-1.3,1.6-2.3C56.5,19.3,66.8,9.4,79.4,9.4
		c13,0,23.5,10.5,23.5,23.5c0,1.6-0.2,3.3-0.5,4.9c-0.2,0.8,0.1,1.7,0.6,2.3s1.4,0.9,2.3,0.8c1.1-0.1,2-0.2,2.8-0.2
		c11.5,0,20.9,9.4,20.9,20.9S119.6,82.5,108.1,82.5z"/>
	<path class="st0" d="M83.2,114.1c-1.3-0.6-2.9-0.1-3.5,1.2L71.9,131c-0.6,1.3-0.1,2.9,1.2,3.5c0.4,0.2,0.8,0.3,1.2,0.3
		c1,0,1.9-0.5,2.3-1.4l7.8-15.7C85,116.3,84.5,114.8,83.2,114.1z"/>
	<path class="st0" d="M104.1,93.2c-1.3-0.6-2.9-0.1-3.5,1.2l-7.8,15.7c-0.6,1.3-0.1,2.9,1.2,3.5c0.4,0.2,0.8,0.3,1.2,0.3
		c1,0,1.9-0.5,2.3-1.4l7.8-15.7C105.9,95.5,105.4,93.9,104.1,93.2z"/>
	<path class="st0" d="M59.7,114.1c-1.3-0.6-2.9-0.1-3.5,1.2L48.4,131c-0.6,1.3-0.1,2.9,1.2,3.5c0.4,0.2,0.8,0.3,1.2,0.3
		c1,0,1.9-0.5,2.3-1.4l7.8-15.7C61.5,116.3,61,114.8,59.7,114.1z"/>
	<path class="st0" d="M73.9,112.4l7.8-15.7c0.6-1.3,0.1-2.9-1.2-3.5c-1.3-0.6-2.9-0.1-3.5,1.2l-7.8,15.7c-0.6,1.3-0.1,2.9,1.2,3.5
		c0.4,0.2,0.8,0.3,1.2,0.3C72.5,113.9,73.5,113.3,73.9,112.4z"/>
	<path class="st0" d="M36.2,114.1c-1.3-0.6-2.9-0.1-3.5,1.2L24.9,131c-0.6,1.3-0.1,2.9,1.2,3.5c0.4,0.2,0.8,0.3,1.2,0.3
		c1,0,1.9-0.5,2.3-1.4l7.8-15.7C38,116.3,37.5,114.8,36.2,114.1z"/>
	<path class="st0" d="M50.4,112.4l7.8-15.7c0.6-1.3,0.1-2.9-1.2-3.5c-1.3-0.6-2.9-0.1-3.5,1.2l-7.8,15.7c-0.6,1.3-0.1,2.9,1.2,3.5
		c0.4,0.2,0.8,0.3,1.2,0.3C49,113.9,50,113.3,50.4,112.4z"/>
	<path class="st0" d="M26.9,112.4l7.8-15.7c0.6-1.3,0.1-2.9-1.2-3.5c-1.3-0.6-2.9-0.1-3.5,1.2l-7.8,15.7c-0.6,1.3-0.1,2.9,1.2,3.5
		c0.4,0.2,0.8,0.3,1.2,0.3C25.6,113.9,26.5,113.3,26.9,112.4z"/>
</g>
</svg>
