<?xml version="1.0" encoding="utf-8"?>
<!-- Generator: Adobe Illustrator 25.2.2, SVG Export Plug-In . SVG Version: 6.00 Build 0)  -->
<svg version="1.1" id="Calque_1" xmlns="http://www.w3.org/2000/svg" xmlns:xlink="http://www.w3.org/1999/xlink" x="0px" y="0px"
	 viewBox="0 0 137.9 139" style="enable-background:new 0 0 137.9 139;" xml:space="preserve">
<style type="text/css">
	.st0{fill:#FFFFFF;}
</style>
<g>
	<path class="st0" d="M108,35.5h-0.1c0.1-0.9,0.1-1.8,0.1-2.6C108,17,95.2,4.2,79.3,4.2c-13.9,0-25.5,9.8-28.1,23
		c-2.6-1.4-5.5-2.1-8.5-2.1c-10.1,0-18.3,8.2-18.3,18.3c0,0.9,0.1,1.8,0.2,2.6h-0.2C12.9,46,3.5,55.4,3.5,66.9
		c0,11.5,9.3,20.8,20.8,20.9l3.3-5.2h-3.2c-8.6,0-15.7-7-15.7-15.7s7.1-15.7,15.7-15.7c1.1,0,2.1,0.1,3.1,0.3
		c0.9,0.2,1.9-0.1,2.5-0.9c0.6-0.7,0.8-1.8,0.4-2.6c-0.6-1.5-0.9-3.1-0.9-4.7c0-7.2,5.9-13.1,13.1-13.1c3.2,0,6.4,1.2,8.8,3.4
		c0.8,0.7,1.8,0.9,2.8,0.5s1.6-1.3,1.6-2.3C56.4,19.3,66.7,9.4,79.3,9.4c13,0,23.5,10.6,23.5,23.5c0,1.6-0.2,3.3-0.5,4.9
		c-0.2,0.8,0.1,1.7,0.7,2.3c0.6,0.6,1.4,0.9,2.2,0.8c1.1-0.1,2-0.2,2.8-0.2c11.5,0,20.9,9.4,20.9,20.9c0,11.5-9.4,20.9-20.9,20.9
		H68.5l-4.2,5.2H108c14.4,0,26.1-11.7,26.1-26.1S122.5,35.5,108,35.5z"/>
	<path class="st0" d="M79.3,134.8c-0.4,0-0.8-0.1-1.2-0.3c-1.3-0.6-1.8-2.2-1.2-3.5l7.8-15.7c0.6-1.3,2.2-1.8,3.5-1.2
		c1.3,0.6,1.8,2.2,1.2,3.5l-7.8,15.7C81.2,134.3,80.3,134.8,79.3,134.8z"/>
	<path class="st0" d="M100.2,113.9c-0.4,0-0.8-0.1-1.2-0.3c-1.3-0.6-1.8-2.2-1.2-3.5l7.8-15.7c0.6-1.3,2.2-1.8,3.5-1.2
		c1.3,0.6,1.8,2.2,1.2,3.5l-7.8,15.7C102.1,113.4,101.2,113.9,100.2,113.9z"/>
	<path class="st0" d="M55.8,134.8c-0.4,0-0.8-0.1-1.2-0.3c-1.3-0.6-1.8-2.2-1.2-3.5l7.8-15.7c0.6-1.3,2.2-1.8,3.5-1.2
		c1.3,0.6,1.8,2.2,1.2,3.5l-7.8,15.7C57.7,134.3,56.7,134.8,55.8,134.8z"/>
	<path class="st0" d="M76.7,113.9c-0.4,0-0.8-0.1-1.2-0.3c-1.3-0.6-1.8-2.2-1.2-3.5l7.8-15.7c0.6-1.3,2.2-1.8,3.5-1.2
		c1.3,0.6,1.8,2.2,1.2,3.5L79,112.5C78.6,113.4,77.7,113.9,76.7,113.9z"/>
	<path class="st0" d="M27,134.8c-0.6,0-1.2-0.2-1.7-0.6c-1-0.8-1.2-2.2-0.5-3.3l13.3-22.2H21.8c-1,0-1.8-0.5-2.3-1.4
		c-0.5-0.8-0.4-1.9,0.1-2.7l23.5-36.6c0.5-0.7,1.3-1.2,2.2-1.2h23.5c1,0,1.9,0.6,2.4,1.5c0.4,0.9,0.3,2-0.3,2.8L53.4,93h18.1
		c1.1,0,2.1,0.7,2.5,1.7c0.4,1,0.1,2.2-0.8,2.9l-44.4,36.6C28.2,134.6,27.6,134.8,27,134.8z M26.6,103.5h16.1c0.9,0,1.8,0.5,2.3,1.3
		c0.5,0.8,0.5,1.8,0,2.6l-7.9,13.1l27.1-22.3H48c-1,0-1.9-0.6-2.4-1.5c-0.4-0.9-0.3-2,0.3-2.8l17.5-21.9H46.8L26.6,103.5z"/>
</g>
</svg>
