<?xml version="1.0" encoding="utf-8"?>
<!-- Generator: Adobe Illustrator 25.2.2, SVG Export Plug-In . SVG Version: 6.00 Build 0)  -->
<svg version="1.1" id="Calque_1" xmlns="http://www.w3.org/2000/svg" xmlns:xlink="http://www.w3.org/1999/xlink" x="0px" y="0px"
	 viewBox="0 0 137.9 139" style="enable-background:new 0 0 137.9 139;" xml:space="preserve">
<style type="text/css">
	.st0{fill:#FFFFFF;}
</style>
<path class="st0" d="M123.9,97.6l-10.1-5.8l8.2-1.3c1.7-0.3,2.9-1.9,2.6-3.6c-0.3-1.7-1.9-2.8-3.6-2.6l-15.7,2.6L75.2,69.5L105,52.3
	l15.9,2.5c0.2,0,0.3,0,0.5,0c1.5,0,2.9-1.1,3.1-2.7c0.3-1.7-0.9-3.3-2.6-3.6l-8.2-1.3l10.2-5.9c1.5-0.9,2-2.8,1.2-4.3
	c-0.9-1.5-2.8-2-4.3-1.2l-10.1,5.9l3-7.9c0.6-1.6-0.2-3.4-1.8-4c-1.6-0.6-3.4,0.2-4,1.8l-5.7,15L72.1,64V29.5L82.2,17
	c1.1-1.4,0.9-3.3-0.5-4.4c-1.3-1.1-3.3-0.9-4.4,0.5l-5.2,6.5V7.7c0-1.7-1.4-3.1-3.1-3.1c-1.7,0-3.1,1.4-3.1,3.1v11.9L60.5,13
	c-1.1-1.4-3.1-1.5-4.4-0.5c-1.3,1.1-1.5,3.1-0.5,4.4l10.2,12.6v34.6L35.7,46.7l-5.7-15c-0.6-1.6-2.4-2.4-4-1.8
	c-1.6,0.6-2.4,2.4-1.8,4l3,7.9L17,35.9c-1.5-0.9-3.4-0.3-4.3,1.2c-0.9,1.5-0.3,3.4,1.2,4.3l10.2,5.9l-8.2,1.3
	c-1.7,0.3-2.9,1.9-2.6,3.6c0.2,1.5,1.6,2.7,3.1,2.7c0.2,0,0.3,0,0.5,0l15.9-2.5l29.9,17.2L32.5,86.8l-15.7-2.6
	c-1.7-0.2-3.3,0.9-3.6,2.6c-0.3,1.7,0.9,3.3,2.6,3.6l8.2,1.3l-10.1,5.8c-1.5,0.9-2,2.8-1.2,4.3c0.6,1,1.6,1.6,2.7,1.6
	c0.5,0,1.1-0.1,1.6-0.4l10.2-5.9l-3,7.9c-0.6,1.6,0.2,3.4,1.8,4.1c0.4,0.1,0.7,0.2,1.1,0.2c1.3,0,2.5-0.8,2.9-2l5.8-15.1l30-17.3
	v34.7L55.6,122c-1.1,1.3-0.9,3.3,0.4,4.4c0.6,0.5,1.3,0.7,2,0.7c0.9,0,1.8-0.4,2.4-1.1l5.4-6.5v11.8c0,1.7,1.4,3.1,3.1,3.1
	c1.7,0,3.1-1.4,3.1-3.1v-11.7l5.2,6.4c0.6,0.8,1.5,1.2,2.4,1.2c0.7,0,1.4-0.2,2-0.7c1.3-1.1,1.5-3.1,0.5-4.4l-10.1-12.4V75L102,92.2
	l5.8,15.1c0.5,1.2,1.7,2,2.9,2c0.4,0,0.7-0.1,1.1-0.2c1.6-0.6,2.4-2.4,1.8-4.1l-3-7.9l10.2,5.9c0.5,0.3,1,0.4,1.6,0.4
	c1.1,0,2.1-0.6,2.7-1.6C125.9,100.4,125.4,98.5,123.9,97.6z"/>
</svg>
