<?xml version="1.0" encoding="utf-8"?>
<!-- Generator: Adobe Illustrator 25.2.2, SVG Export Plug-In . SVG Version: 6.00 Build 0)  -->
<svg version="1.1" id="Calque_1" xmlns="http://www.w3.org/2000/svg" xmlns:xlink="http://www.w3.org/1999/xlink" x="0px" y="0px"
	 viewBox="0 0 137.9 139" style="enable-background:new 0 0 137.9 139;" xml:space="preserve">
<style type="text/css">
	.st0{fill:#FFFFFF;}
</style>
<g>
	<path class="st0" d="M19.2,34.7h72.1c1.4,0,2.5-1.1,2.5-2.5s-1.1-2.5-2.5-2.5H19.2c-1.4,0-2.5,1.1-2.5,2.5S17.8,34.7,19.2,34.7z"/>
	<path class="st0" d="M101.3,34.7h27.4c1.4,0,2.5-1.1,2.5-2.5s-1.1-2.5-2.5-2.5h-27.4c-1.4,0-2.5,1.1-2.5,2.5S99.9,34.7,101.3,34.7z
		"/>
	<path class="st0" d="M14.2,49.6H59c1.4,0,2.5-1.1,2.5-2.5s-1.1-2.5-2.5-2.5H14.2c-1.4,0-2.5,1.1-2.5,2.5S12.9,49.6,14.2,49.6z"/>
	<path class="st0" d="M123.7,44.6H68.9c-1.4,0-2.5,1.1-2.5,2.5s1.1,2.5,2.5,2.5h54.7c1.4,0,2.5-1.1,2.5-2.5S125,44.6,123.7,44.6z"/>
	<path class="st0" d="M121.2,62.1c0-1.4-1.1-2.5-2.5-2.5H9.3c-1.4,0-2.5,1.1-2.5,2.5s1.1,2.5,2.5,2.5h109.4
		C120.1,64.5,121.2,63.4,121.2,62.1z"/>
	<path class="st0" d="M128.6,89.4H19.2c-1.4,0-2.5,1.1-2.5,2.5c0,1.4,1.1,2.5,2.5,2.5h109.4c1.4,0,2.5-1.1,2.5-2.5
		C131.1,90.5,130,89.4,128.6,89.4z"/>
	<path class="st0" d="M14.2,74.5c-1.4,0-2.5,1.1-2.5,2.5s1.1,2.5,2.5,2.5h29.8c1.4,0,2.5-1.1,2.5-2.5s-1.1-2.5-2.5-2.5H14.2z"/>
	<path class="st0" d="M123.7,74.5H54c-1.4,0-2.5,1.1-2.5,2.5s1.1,2.5,2.5,2.5h69.6c1.4,0,2.5-1.1,2.5-2.5S125,74.5,123.7,74.5z"/>
	<path class="st0" d="M76.4,104.3H14.2c-1.4,0-2.5,1.1-2.5,2.5c0,1.4,1.1,2.5,2.5,2.5h62.2c1.4,0,2.5-1.1,2.5-2.5
		C78.9,105.5,77.8,104.3,76.4,104.3z"/>
	<path class="st0" d="M123.7,104.3H86.4c-1.4,0-2.5,1.1-2.5,2.5c0,1.4,1.1,2.5,2.5,2.5h37.3c1.4,0,2.5-1.1,2.5-2.5
		C126.2,105.5,125,104.3,123.7,104.3z"/>
</g>
</svg>
