<?xml version="1.0" encoding="utf-8"?>
<!-- Generator: Adobe Illustrator 25.1.0, SVG Export Plug-In . SVG Version: 6.00 Build 0)  -->
<svg version="1.1" id="Calque_1" xmlns="http://www.w3.org/2000/svg" xmlns:xlink="http://www.w3.org/1999/xlink" x="0px" y="0px"
	 viewBox="0 0 137.9 139" style="enable-background:new 0 0 137.9 139;" xml:space="preserve">
<style type="text/css">
	.st0{fill:#FFFFFF;}
</style>
<g>
	<path class="st0" d="M114.2,53.1c0-16.2-13.2-29.4-29.4-29.4c-8.4,0-16.2,3.5-21.7,9.6c-2.8-0.8-5.8-1.2-8.8-1.2
		c-12.9,0-24.8,7.7-30.2,19.3C11.3,51.7,1,62.2,1,75c0,13,10.6,23.6,23.6,23.6h61.6c10.6,0,19.3-8.7,19.3-19.3
		c0-1.6-0.2-3.2-0.6-4.8C110.8,69.1,114.2,61.3,114.2,53.1z M86.2,92.4H24.6c-9.6,0-17.3-7.8-17.3-17.3c0-9.6,7.8-17.3,17.3-17.3
		c0.4,0,0.8,0,1.1,0.1l0.1,0c1.4,0.1,2.7-0.7,3.2-2c4-10.4,14.1-17.3,25.2-17.3c14.1,0,26,11,26.9,25.1c0.1,0.9,0.5,1.7,1.1,2.2
		c0.7,0.5,1.5,0.8,2.4,0.7c0.6-0.1,1.1-0.1,1.5-0.1c7.2,0,13,5.8,13,13S93.4,92.4,86.2,92.4z M87.1,60.1
		c-1.7-10.6-8.5-19.5-17.6-24.3c4.2-3.7,9.6-5.8,15.4-5.8c12.7,0,23.1,10.4,23.1,23.1c0,5.7-2.1,11.2-5.8,15.4
		C98.8,63.7,93.3,60.4,87.1,60.1z"/>
	<path class="st0" d="M84.8,17.8c1.7,0,3.1-1.4,3.1-3.1V4.1C88,2.4,86.6,1,84.8,1c-1.7,0-3.1,1.4-3.1,3.1v10.5
		C81.7,16.4,83.1,17.8,84.8,17.8z"/>
	<path class="st0" d="M133.8,50h-10.5c-1.7,0-3.1,1.4-3.1,3.1s1.4,3.1,3.1,3.1h10.5c1.7,0,3.1-1.4,3.1-3.1S135.5,50,133.8,50z"/>
	<path class="st0" d="M112,29.1c0.8,0,1.6-0.3,2.2-0.9l7.4-7.4c1.2-1.2,1.2-3.2,0-4.4c-1.2-1.2-3.2-1.2-4.4,0l-7.4,7.4
		c-1.2,1.2-1.2,3.2,0,4.4C110.4,28.8,111.2,29.1,112,29.1z"/>
	<path class="st0" d="M55.4,28.2c0.6,0.6,1.4,0.9,2.2,0.9c0.8,0,1.6-0.3,2.2-0.9c1.2-1.2,1.2-3.2,0-4.4l-7.4-7.4
		c-1.2-1.2-3.2-1.2-4.4,0c-1.2,1.2-1.2,3.2,0,4.4L55.4,28.2z"/>
	<path class="st0" d="M114.2,78.1c-1.2-1.2-3.2-1.2-4.4,0c-1.2,1.2-1.2,3.2,0,4.4l7.4,7.4c0.6,0.6,1.4,0.9,2.2,0.9
		c0.8,0,1.6-0.3,2.2-0.9c1.2-1.2,1.2-3.2,0-4.4L114.2,78.1z"/>
	<path class="st0" d="M33.2,103.2c-1.6-0.7-3.4-0.1-4.2,1.5l-3.7,7.8c-0.7,1.6-0.1,3.4,1.5,4.2c0.4,0.2,0.9,0.3,1.3,0.3
		c1.2,0,2.3-0.7,2.8-1.8l3.7-7.8C35.4,105.8,34.7,103.9,33.2,103.2z"/>
	<path class="st0" d="M23,124.7c-1.6-0.7-3.4-0.1-4.2,1.5l-3.7,7.8c-0.7,1.6-0.1,3.4,1.5,4.2c0.4,0.2,0.9,0.3,1.3,0.3
		c1.2,0,2.3-0.7,2.8-1.8l3.7-7.8C25.2,127.3,24.5,125.4,23,124.7z"/>
	<path class="st0" d="M56,103.2c-1.6-0.7-3.4-0.1-4.2,1.5l-3.7,7.8c-0.7,1.6-0.1,3.4,1.5,4.2c0.4,0.2,0.9,0.3,1.3,0.3
		c1.2,0,2.3-0.7,2.8-1.8l3.7-7.8C58.3,105.8,57.6,103.9,56,103.2z"/>
	<path class="st0" d="M45.9,124.7c-1.6-0.7-3.4-0.1-4.2,1.5L38,134c-0.7,1.6-0.1,3.4,1.5,4.2c0.4,0.2,0.9,0.3,1.3,0.3
		c1.2,0,2.3-0.7,2.8-1.8l3.7-7.8C48.1,127.3,47.4,125.4,45.9,124.7z"/>
	<path class="st0" d="M78.9,103.2c-1.6-0.7-3.4-0.1-4.2,1.5l-3.7,7.8c-0.7,1.6-0.1,3.4,1.5,4.2c0.4,0.2,0.9,0.3,1.3,0.3
		c1.2,0,2.3-0.7,2.8-1.8l3.7-7.8C81.2,105.8,80.5,103.9,78.9,103.2z"/>
	<path class="st0" d="M68.8,124.7c-1.6-0.7-3.4-0.1-4.2,1.5l-3.7,7.8c-0.7,1.6-0.1,3.4,1.5,4.2c0.4,0.2,0.9,0.3,1.3,0.3
		c1.2,0,2.3-0.7,2.8-1.8l3.7-7.8C71,127.3,70.3,125.4,68.8,124.7z"/>
</g>
</svg>
